<?xml version="1.0" standalone="no"?>
<!DOCTYPE svg PUBLIC "-//W3C//DTD SVG 20010904//EN"
 "http://www.w3.org/TR/2001/REC-SVG-20010904/DTD/svg10.dtd">
<svg version="1.0" xmlns="http://www.w3.org/2000/svg"
 width="1000.000000pt" height="1000.000000pt" viewBox="0 0 1000.000000 1000.000000"
 preserveAspectRatio="xMidYMid meet">
<metadata>
Created by potrace 1.11, written by Peter Selinger 2001-2013
</metadata>
<g transform="translate(0.000000,1000.000000) scale(0.100000,-0.100000)"
fill="#000000" stroke="none">
<path d="M2090 9978 c5 -13 25 -70 45 -128 20 -58 45 -127 56 -153 11 -26 17
-52 14 -57 -3 -6 -1 -10 4 -10 6 0 10 -3 9 -7 0 -5 2 -15 5 -23 3 -8 24 -69
47 -135 23 -66 48 -138 57 -160 8 -22 17 -47 19 -55 3 -16 80 -234 91 -260 3
-8 7 -17 8 -20 5 -19 28 -89 35 -105 5 -11 14 -38 21 -60 6 -22 16 -46 22 -52
5 -7 7 -13 3 -13 -3 0 4 -24 15 -52 12 -29 22 -60 24 -68 2 -8 13 -39 24 -67
12 -29 18 -53 15 -53 -4 0 -2 -6 4 -12 5 -7 26 -62 47 -123 20 -60 48 -138 61
-173 13 -34 24 -66 25 -70 3 -15 11 -38 24 -72 8 -19 37 -102 65 -185 29 -82
77 -220 107 -305 30 -85 55 -159 57 -165 2 -5 6 -17 9 -25 3 -8 13 -35 21 -60
8 -25 33 -97 56 -160 22 -63 42 -122 45 -130 2 -8 25 -73 50 -145 25 -71 57
-164 71 -205 14 -41 29 -84 34 -95 5 -11 27 -72 48 -135 22 -63 45 -128 52
-145 6 -16 11 -31 11 -32 0 -2 2 -8 4 -15 46 -125 164 -473 165 -483 0 -3 6
-18 15 -35 8 -16 17 -37 18 -47 5 -22 14 -47 33 -91 8 -18 14 -37 14 -42 0 -5
5 -21 12 -37 6 -15 12 -32 14 -38 1 -5 25 -75 54 -155 28 -80 52 -149 54 -155
2 -5 6 -17 9 -25 3 -8 17 -49 31 -90 42 -126 97 -284 106 -305 10 -26 44 -119
45 -125 2 -11 27 -86 35 -105 5 -11 23 -60 40 -109 l30 -88 -2 -474 -3 -474
-125 187 c-69 102 -131 192 -137 199 -7 7 -13 16 -13 20 0 7 -89 143 -100 154
-12 12 -225 336 -228 348 -2 6 -7 12 -12 12 -5 0 -17 16 -26 35 -9 19 -20 35
-25 35 -5 0 -9 6 -9 13 0 7 -9 23 -20 35 -11 12 -20 23 -20 26 0 9 -84 131
-92 134 -5 2 -8 9 -8 16 0 7 -9 21 -20 31 -11 10 -20 21 -20 25 0 4 -24 42
-52 84 -29 43 -60 88 -68 101 -8 13 -60 90 -115 172 -55 81 -103 155 -107 163
-3 8 -14 24 -25 36 -20 22 -34 43 -59 88 -9 16 -25 38 -35 49 -10 11 -21 29
-25 39 -3 10 -10 18 -15 18 -5 0 -9 4 -9 9 0 12 -61 105 -72 109 -4 2 -8 7 -8
11 0 8 -22 41 -168 258 l-62 93 -188 -126 c-103 -70 -188 -131 -190 -135 -2
-5 -8 -9 -13 -9 -8 0 -87 -47 -99 -60 -14 -14 -70 -50 -79 -50 -5 0 -11 -4
-13 -8 -1 -4 -37 -30 -78 -57 -41 -27 -77 -51 -80 -55 -3 -3 -93 -63 -200
-135 -107 -71 -196 -133 -198 -137 -2 -4 -9 -8 -15 -8 -7 0 -25 -11 -41 -25
-16 -14 -33 -25 -37 -25 -4 0 -14 -6 -21 -12 -11 -12 -104 -75 -150 -103 -74
-46 -145 -101 -140 -110 28 -49 187 -281 194 -283 4 -2 8 -8 8 -14 0 -8 135
-214 150 -228 3 -3 11 -17 19 -32 8 -15 22 -37 33 -47 10 -11 18 -22 18 -25 0
-6 122 -189 131 -196 3 -3 16 -24 29 -47 13 -24 27 -43 32 -43 4 0 8 -7 8 -15
0 -8 5 -15 10 -15 6 0 10 -7 10 -15 0 -8 5 -15 10 -15 6 0 10 -6 10 -13 0 -8
9 -22 20 -32 11 -10 20 -21 20 -25 0 -6 146 -228 167 -255 5 -5 144 -212 309
-460 166 -247 340 -508 388 -579 47 -70 86 -132 86 -137 0 -5 3 -9 8 -9 4 0
16 -16 26 -35 11 -19 23 -35 28 -35 4 0 8 -4 8 -9 0 -12 61 -105 72 -109 4 -2
8 -7 8 -12 0 -9 103 -166 127 -192 9 -10 12 -18 7 -18 -5 0 -4 -4 2 -8 6 -4
72 -99 147 -212 75 -113 141 -212 147 -220 97 -141 150 -223 150 -230 0 -6 4
-10 8 -10 5 0 15 -12 23 -27 8 -16 17 -30 20 -33 5 -5 314 -465 533 -795 55
-82 103 -152 108 -153 4 -2 8 -8 8 -12 0 -5 32 -57 71 -115 l71 -105 932 0
932 0 32 45 c18 25 32 50 32 55 0 6 5 10 10 10 6 0 10 6 10 14 0 8 3 16 8 18
10 4 252 367 252 378 0 4 4 10 8 12 4 2 68 93 142 203 73 110 138 203 144 207
6 4 7 8 2 8 -5 0 -1 10 10 22 31 37 84 115 84 126 0 6 3 12 8 14 4 2 25 30 47
63 22 33 42 62 46 65 3 3 8 10 10 15 2 6 74 114 159 240 85 127 157 235 160
240 8 15 44 69 50 75 3 3 21 30 40 60 19 30 37 57 40 60 3 3 17 23 30 45 13
22 27 42 30 45 3 3 46 66 95 140 49 74 92 137 97 138 4 2 8 7 8 12 0 4 67 109
150 232 184 274 152 226 270 401 55 82 100 152 100 157 0 4 7 10 15 14 8 3 15
10 15 16 0 11 141 223 153 228 4 2 7 8 7 13 0 11 42 72 53 77 4 2 7 8 7 13 0
11 42 72 53 77 4 2 7 8 7 13 0 9 36 65 50 79 10 10 50 69 50 74 0 2 36 57 80
121 44 64 80 121 80 126 0 5 5 9 10 9 6 0 10 6 10 14 0 8 3 16 8 18 4 1 57 77
117 168 61 91 113 167 118 168 4 2 7 8 7 12 0 8 146 229 170 257 5 7 10 14 10
16 0 6 82 130 90 137 3 3 15 20 27 39 l21 34 -28 24 c-15 12 -31 23 -34 23 -3
0 -28 15 -55 34 -26 19 -214 146 -417 282 -203 136 -370 252 -372 256 -2 4 -9
8 -16 8 -7 0 -21 8 -32 19 -11 10 -31 24 -44 31 -13 7 -88 57 -167 111 -79 55
-147 99 -152 99 -5 0 -11 3 -13 8 -5 10 -66 52 -77 52 -5 0 -11 4 -13 8 -1 5
-31 27 -65 50 l-62 42 -45 -66 c-25 -36 -46 -68 -46 -72 0 -4 -14 -23 -30 -42
-16 -19 -30 -41 -30 -48 0 -7 -7 -15 -15 -18 -8 -4 -15 -10 -15 -15 0 -4 -25
-45 -55 -89 -30 -44 -55 -85 -55 -90 0 -4 -4 -10 -8 -12 -11 -4 -132 -185
-132 -197 0 -5 -4 -11 -9 -13 -5 -1 -47 -61 -95 -133 -47 -71 -116 -176 -153
-231 -38 -56 -72 -109 -78 -118 -5 -8 -95 -142 -200 -297 -104 -156 -192 -287
-194 -293 -2 -6 -7 -13 -11 -16 -6 -4 -117 -168 -180 -265 -8 -13 -37 -57 -64
-99 -27 -42 -53 -76 -58 -76 -4 0 -8 -5 -8 -10 0 -6 -44 -75 -97 -155 l-98
-145 -3 473 c-2 442 -1 475 17 527 10 30 44 127 76 215 31 88 58 165 59 170 2
6 6 17 9 25 8 18 89 250 118 335 11 33 23 67 26 75 3 8 8 24 10 35 2 10 9 23
16 27 6 4 9 8 5 8 -4 0 2 26 13 58 22 62 26 73 28 85 0 4 8 21 16 37 9 17 13
30 10 30 -3 0 2 11 11 25 9 14 13 25 10 25 -4 0 0 13 9 30 8 16 15 31 15 32
-1 2 1 10 4 18 6 21 37 112 44 130 3 8 6 20 7 25 2 6 14 40 28 78 15 37 24 67
20 67 -3 0 -1 6 5 13 5 6 30 71 55 142 63 180 155 443 217 615 28 80 53 152
55 160 2 8 4 16 5 18 2 1 3 6 4 11 0 5 4 13 9 17 4 4 7 17 7 30 0 12 3 24 8
26 4 2 16 30 26 63 10 33 23 71 29 85 5 14 11 30 13 35 1 6 14 42 29 80 15 39
26 70 25 70 -1 0 3 13 9 28 6 16 11 34 11 41 0 6 4 16 8 22 4 5 19 43 32 84
14 41 27 77 30 80 3 3 6 13 8 24 2 10 8 30 14 45 6 14 12 31 14 36 5 20 135
390 144 410 5 11 32 88 60 170 65 189 157 450 204 580 41 112 40 109 51 150 4
17 11 35 15 40 4 6 17 42 29 80 12 39 25 79 31 90 11 24 70 193 75 218 2 9 7
22 11 28 4 7 26 68 50 138 24 69 47 133 51 141 3 8 7 21 9 27 3 14 32 98 44
128 27 62 58 164 53 169 -4 3 -390 6 -858 6 l-852 0 -11 -25 c-7 -14 -12 -34
-12 -44 0 -10 -3 -21 -7 -25 -4 -3 -8 -12 -9 -19 -7 -30 -14 -58 -39 -142 -34
-112 -55 -186 -60 -205 -2 -8 -4 -15 -5 -15 -1 0 -3 -7 -5 -17 -4 -21 -52
-189 -71 -248 -8 -25 -32 -108 -54 -185 -22 -77 -44 -153 -50 -169 -5 -16 -7
-33 -4 -37 3 -5 0 -9 -5 -9 -6 0 -10 -3 -9 -7 1 -5 -3 -24 -9 -43 -6 -19 -18
-60 -27 -90 -8 -30 -26 -93 -40 -140 -87 -301 -107 -369 -117 -400 -5 -19 -12
-44 -14 -55 -2 -11 -4 -20 -5 -20 -1 0 -3 -7 -5 -15 -5 -17 -55 -190 -86 -290
-10 -36 -21 -74 -24 -85 -7 -35 -87 -309 -95 -330 -5 -11 -27 -87 -50 -170
-23 -82 -48 -169 -56 -192 -7 -23 -15 -53 -18 -67 -3 -14 -7 -30 -11 -36 -7
-12 -33 -103 -41 -145 -3 -16 -11 -36 -16 -42 -6 -7 -8 -13 -5 -13 3 0 -2 -21
-10 -47 -19 -61 -54 -185 -57 -198 -1 -5 -4 -14 -8 -20 -6 -10 -21 -73 -18
-77 1 -2 -4 -16 -10 -33 -12 -31 -59 -188 -65 -216 -2 -9 -13 -47 -25 -85 -12
-38 -24 -78 -26 -89 -3 -11 -7 -27 -9 -35 -2 -8 -4 -16 -5 -17 -2 -2 -4 -7 -5
-13 -1 -5 -4 -12 -5 -15 -5 -9 -7 -25 -9 -47 -2 -32 -16 -11 -32 47 -7 28 -14
53 -15 58 -1 4 -2 8 -4 10 -1 1 -3 9 -5 17 -1 8 -20 73 -40 144 -20 70 -38
133 -40 140 -1 6 -5 18 -8 26 -7 16 -38 125 -41 144 -1 6 -11 38 -21 71 -10
33 -19 65 -19 70 -1 6 -10 37 -20 70 -10 33 -19 65 -20 70 -1 6 -10 35 -19 65
-20 66 -59 201 -62 215 -1 6 -8 30 -15 55 -7 25 -14 50 -16 55 -1 6 -39 136
-83 290 -45 154 -84 291 -87 305 -2 14 -11 42 -19 63 -8 20 -13 37 -10 37 2 0
-4 24 -14 53 -10 28 -19 57 -21 62 -1 6 -4 15 -5 20 -7 25 -30 111 -30 115 -1
3 -9 30 -19 61 -9 31 -19 65 -21 75 -2 11 -25 89 -50 174 -25 85 -47 162 -49
170 -21 82 -42 156 -46 160 -3 3 -7 14 -8 25 -2 11 -35 130 -74 265 -39 135
-71 250 -72 255 -2 6 -9 30 -16 55 -8 25 -14 48 -16 53 -1 4 -2 8 -3 10 -2 1
-4 11 -7 22 -2 11 -17 67 -34 125 -34 115 -68 236 -74 261 -3 9 -14 49 -26 90
-12 41 -22 74 -21 74 0 0 -6 20 -13 45 l-13 45 -861 3 -862 2 10 -22z"/>
</g>
</svg>
